<?xml version="1.0" encoding="utf-8"?>
<!-- Generator: Adobe Illustrator 24.1.0, SVG Export Plug-In . SVG Version: 6.00 Build 0)  -->
<svg version="1.1" id="Layer_1" xmlns="http://www.w3.org/2000/svg" xmlns:xlink="http://www.w3.org/1999/xlink" x="0px" y="0px"
	 viewBox="0 0 826.2 276.5" style="enable-background:new 0 0 826.2 276.5;" xml:space="preserve">
<style type="text/css">
	.st0{fill:url(#SVGID-2_1_);}
	.st1{clip-path:url(#SVGID_2_);}
	.st2{fill:url(#SVGID_3_);}
	.st3{fill:#FFFFFF;}
</style>
<linearGradient id="SVGID-2_1_" gradientUnits="userSpaceOnUse" x1="98.1658" y1="243.0369" x2="15.2158" y2="160.0869" gradientTransform="matrix(1 0 0 -1 75.09 341.16)">
	<stop  offset="0" style="stop-color:#F4865F"/>
	<stop  offset="0.15" style="stop-color:#F38060"/>
	<stop  offset="0.36" style="stop-color:#F26E61"/>
	<stop  offset="0.6" style="stop-color:#EF5164"/>
	<stop  offset="0.86" style="stop-color:#EA2967"/>
	<stop  offset="1" style="stop-color:#E81169"/>
</linearGradient>
<path id="SVGID-2" class="st0" d="M98.5,79.4v79.8c0,4-3.2,7.2-7.2,7.2c-4,0-7.2-3.2-7.2-7.2v-17.8c0-2.5-2-4.5-4.5-4.5
	s-4.5,2-4.5,4.5v17.8c-0.2,9,6.9,16.4,15.8,16.6c9,0.2,16.4-6.9,16.6-15.8c0-0.3,0-0.5,0-0.8V79.4c-0.1-4,3-7.4,7-7.5
	c4-0.1,7.4,3,7.5,7c0,0.2,0,0.4,0,0.5v117.8c-0.2,9,6.9,16.4,15.8,16.6c9,0.2,16.4-6.9,16.6-15.8c0-0.3,0-0.5,0-0.8v-87.7
	c0-4,3.2-7.2,7.2-7.2c4,0,7.2,3.2,7.2,7.2V163c-0.2,9,6.9,16.4,15.8,16.6c9,0.2,16.4-6.9,16.6-15.8c0-0.3,0-0.5,0-0.8v-21.7
	c0-2.5-2-4.5-4.5-4.5s-4.5,2-4.5,4.5l0,0V163c0.1,4-3,7.4-7,7.5c-4,0.1-7.4-3-7.5-7c0-0.2,0-0.4,0-0.5v-53.5c0-9-7.3-16.2-16.2-16.2
	c-9,0-16.2,7.3-16.2,16.2l0,0v87.7c0.1,4-3,7.4-7,7.5c-4,0.1-7.4-3-7.5-7c0-0.2,0-0.4,0-0.5V79.4c0-9-7.3-16.2-16.2-16.2
	S98.5,70.4,98.5,79.4"/>
<g>
	<defs>
		<path id="SVGID_1_" d="M98.5,79.4v79.8c0,4-3.2,7.2-7.2,7.2c-4,0-7.2-3.2-7.2-7.2v-17.8c0-2.5-2-4.5-4.5-4.5s-4.5,2-4.5,4.5v17.8
			c-0.2,9,6.9,16.4,15.8,16.6c9,0.2,16.4-6.9,16.6-15.8c0-0.3,0-0.5,0-0.8V79.4c-0.1-4,3-7.4,7-7.5c4-0.1,7.4,3,7.5,7
			c0,0.2,0,0.4,0,0.5v117.8c-0.2,9,6.9,16.4,15.8,16.6c9,0.2,16.4-6.9,16.6-15.8c0-0.3,0-0.5,0-0.8v-87.7c0-4,3.2-7.2,7.2-7.2
			c4,0,7.2,3.2,7.2,7.2V163c-0.2,9,6.9,16.4,15.8,16.6c9,0.2,16.4-6.9,16.6-15.8c0-0.3,0-0.5,0-0.8v-21.7c0-2.5-2-4.5-4.5-4.5
			s-4.5,2-4.5,4.5l0,0V163c0.1,4-3,7.4-7,7.5c-4,0.1-7.4-3-7.5-7c0-0.2,0-0.4,0-0.5v-53.5c0-9-7.3-16.2-16.2-16.2
			c-9,0-16.2,7.3-16.2,16.2l0,0v87.7c0.1,4-3,7.4-7,7.5c-4,0.1-7.4-3-7.5-7c0-0.2,0-0.4,0-0.5V79.4c0-9-7.3-16.2-16.2-16.2
			S98.5,70.4,98.5,79.4"/>
	</defs>
	<clipPath id="SVGID_2_">
		<use xlink:href="#SVGID_1_"  style="overflow:visible;"/>
	</clipPath>
	<g class="st1">
		
			<linearGradient id="SVGID_3_" gradientUnits="userSpaceOnUse" x1="207.3825" y1="208.8725" x2="69.1225" y2="70.6225" gradientTransform="matrix(1 0 0 -1 0 278)">
			<stop  offset="0" style="stop-color:#F4865F"/>
			<stop  offset="0.15" style="stop-color:#F38060"/>
			<stop  offset="0.36" style="stop-color:#F26E61"/>
			<stop  offset="0.6" style="stop-color:#EF5164"/>
			<stop  offset="0.86" style="stop-color:#EA2967"/>
			<stop  offset="1" style="stop-color:#E81169"/>
		</linearGradient>
		<polygon class="st2" points="138.2,276.5 0,138.2 138.2,0 276.5,138.2 		"/>
	</g>
</g>
<path class="st3" d="M292.7,150.7c0,5.6-2,10.1-6.1,13.3c-4.1,3.2-9.7,4.8-16.8,4.8c-3.3,0-6.6-0.3-9.8-0.8
	c-2.7-0.5-5.3-1.3-7.8-2.4v-9.1c2.7,1.2,5.5,2.2,8.4,2.9c3.2,0.9,6.5,1.3,9.8,1.3c4.3,0,7.5-0.8,9.6-2.5c2.1-1.6,3.3-4.1,3.2-6.7
	c0.1-1.8-0.4-3.5-1.4-5c-1.2-1.6-2.8-2.8-4.6-3.7c-2.7-1.4-5.4-2.6-8.2-3.7c-2.9-1.1-5.7-2.5-8.3-4.2c-2.3-1.5-4.3-3.6-5.7-6
	c-1.4-2.7-2.1-5.6-2.1-8.7c0-5.2,1.9-9.3,5.7-12.3c3.8-3,8.8-4.5,15-4.4c3.2,0,6.4,0.3,9.6,1.1c2.9,0.7,5.7,1.6,8.4,2.8l-3,7.9
	c-2.4-1-4.9-1.8-7.4-2.5c-2.5-0.7-5.2-1-7.8-1c-3.5,0-6.2,0.8-8,2.3c-1.8,1.5-2.8,3.7-2.8,6.1c-0.1,1.7,0.4,3.5,1.3,4.9
	c1.1,1.5,2.5,2.8,4.1,3.7c2.5,1.3,5.1,2.5,7.8,3.5c3.2,1.2,6.2,2.7,9.1,4.5c2.3,1.4,4.3,3.4,5.7,5.7
	C292.2,144.9,292.8,147.8,292.7,150.7z"/>
<path class="st3" d="M327.6,167.9H318v-55.3h-19.1v-8.3h47.8v8.3h-19.1V167.9z"/>
<path class="st3" d="M410.7,136c0.1,5.9-1,11.8-3.3,17.2c-2.1,4.7-5.5,8.7-9.9,11.4c-4.4,2.7-9.9,4.1-16.4,4.1
	c-6.7,0-12.3-1.4-16.7-4.1c-4.4-2.7-7.8-6.7-9.8-11.5c-2.2-5.5-3.3-11.4-3.2-17.3c-0.1-5.9,1-11.7,3.2-17.2c2-4.7,5.4-8.7,9.8-11.4
	c4.4-2.7,10-4,16.7-4c6.5,0,12,1.3,16.4,4c4.4,2.7,7.8,6.7,9.9,11.4C409.7,124.2,410.8,130.1,410.7,136z M361.6,136
	c0,7.6,1.6,13.6,4.7,18c3.2,4.4,8.1,6.6,14.8,6.6c6.8,0,11.7-2.2,14.8-6.6c3.1-4.4,4.6-10.4,4.6-18c0-7.6-1.5-13.6-4.6-17.9
	c-3.1-4.3-8-6.5-14.7-6.5c-6.7,0-11.7,2.2-14.8,6.6S361.6,128.5,361.6,136z"/>
<path class="st3" d="M441.3,104.3c8.1,0,14.1,1.5,18,4.5c3.9,3,5.8,7.6,5.8,13.8c0.1,2.9-0.5,5.7-1.8,8.2c-1.1,2.2-2.7,4-4.7,5.5
	c-1.8,1.4-3.9,2.5-6,3.3l17.8,28.2h-11l-15.3-25.8h-11v25.8h-9.6v-63.6H441.3z M440.7,112.5h-7.6v21.7h8c4.9,0,8.5-0.9,10.8-2.8
	s3.4-4.6,3.4-8.3c0-3.8-1.2-6.5-3.6-8.1C449.4,113.3,445.7,112.5,440.7,112.5z"/>
<path class="st3" d="M497.5,134.1l15.6-29.8h10.3l-21.2,38.9v24.7h-9.5v-24.3l-21.2-39.3h10.4L497.5,134.1z"/>
<path class="st3" d="M576.4,167.9h-9.6v-55.3h-19.1v-8.3h47.8v8.3h-19.1V167.9z"/>
<path class="st3" d="M654.5,104.3v41.2c0.1,4.1-0.9,8.2-2.7,11.9c-1.9,3.6-4.8,6.5-8.3,8.4c-3.7,2.1-8.5,3.1-14.2,3.1
	c-8.1,0-14.2-2.2-18.4-6.5c-4.2-4.3-6.3-10-6.3-17.1v-41h9.6v40.6c0,10.5,5.2,15.8,15.5,15.8c5.3,0,9.2-1.4,11.6-4.3
	s3.6-6.7,3.6-11.6v-40.5H654.5z"/>
<path class="st3" d="M723.1,167.9h-11.7l-32.2-51.4H679c0.1,2.4,0.2,5.1,0.4,8.2s0.2,6.2,0.3,9.4v33.9h-8.7v-63.6h11.6l32.1,51.1
	h0.3c-0.1-1.2-0.1-2.8-0.2-4.7c-0.1-1.9-0.2-3.9-0.2-6.1c0-2.2-0.1-4.2-0.2-6.1v-34.2h8.9L723.1,167.9z"/>
<path class="st3" d="M774.9,167.9h-35.8v-63.6h35.8v8.2h-26.2v18.2h24.6v8.1h-24.6v20.9h26.2V167.9z"/>
<path class="st3" d="M826.2,150.7c0,5.6-2,10.1-6.2,13.3c-4.1,3.2-9.7,4.8-16.8,4.8c-3.3,0-6.6-0.3-9.8-0.8
	c-2.7-0.5-5.3-1.3-7.8-2.4v-9.1c2.7,1.2,5.5,2.2,8.4,2.9c3.2,0.9,6.5,1.3,9.8,1.3c4.3,0,7.5-0.8,9.6-2.5c2.1-1.6,3.3-4.1,3.2-6.7
	c0.1-1.8-0.4-3.5-1.4-5c-1.2-1.6-2.8-2.8-4.6-3.7c-2.7-1.4-5.4-2.6-8.2-3.7c-2.9-1.1-5.7-2.5-8.3-4.2c-2.3-1.5-4.3-3.6-5.7-6
	c-1.4-2.7-2.2-5.6-2.1-8.7c0-5.2,1.9-9.3,5.7-12.3c3.8-3,8.8-4.5,15-4.4c3.2,0,6.4,0.3,9.6,1.1c2.9,0.7,5.7,1.6,8.4,2.8l-3,7.9
	c-2.4-1-4.9-1.8-7.4-2.5c-2.5-0.7-5.2-1-7.8-1c-3.5,0-6.2,0.8-8,2.3c-1.8,1.5-2.8,3.7-2.8,6.1c-0.1,1.7,0.4,3.5,1.3,4.9
	c1.1,1.5,2.6,2.8,4.3,3.6c2.5,1.3,5,2.5,7.7,3.5c3.2,1.2,6.2,2.7,9.1,4.5c2.4,1.4,4.3,3.4,5.8,5.7
	C825.6,144.9,826.3,147.8,826.2,150.7z"/>
</svg>
