<svg xmlns="http://www.w3.org/2000/svg" xmlns:xlink="http://www.w3.org/1999/xlink" viewBox="0 0 276.5 276.51"><defs><style>.cls-1{fill:url(#linear-gradient);}.cls-2{fill:#fff;}.cls-3{clip-path:url(#clip-path);}.cls-4{fill:url(#linear-gradient-3);}</style><linearGradient id="linear-gradient" x1="156.08" y1="80.45" x2="73.13" y2="163.4" gradientUnits="userSpaceOnUse"><stop offset="0" stop-color="#f4865f"/><stop offset="0.15" stop-color="#f38060"/><stop offset="0.36" stop-color="#f26e61"/><stop offset="0.6" stop-color="#ef5164"/><stop offset="0.86" stop-color="#ea2967"/><stop offset="1" stop-color="#e81169"/></linearGradient><clipPath id="clip-path" transform="translate(17.09 17.58)"><path id="SVGID" class="cls-1" d="M81.46,61.81v79.75a7.23,7.23,0,1,1-14.46,0V123.8a4.5,4.5,0,1,0-9,0v17.76a16.23,16.23,0,1,0,32.45,0V61.81a7.24,7.24,0,1,1,14.47,0V179.54a16.23,16.23,0,1,0,32.45,0V91.93a7.24,7.24,0,0,1,14.48,0v53.53a16.23,16.23,0,1,0,32.45,0V123.8a4.5,4.5,0,1,0-9,0h0v21.65a7.24,7.24,0,1,1-14.47,0V91.93a16.23,16.23,0,0,0-32.46,0v87.61a7.24,7.24,0,1,1-14.47,0V61.81a16.23,16.23,0,0,0-32.46,0"/></clipPath><linearGradient id="linear-gradient-3" x1="207.38" y1="69.13" x2="69.12" y2="207.38" xlink:href="#linear-gradient"/></defs><g id="Layer_2" data-name="Layer 2"><g id="Layer_4" data-name="Layer 4"><circle class="cls-2" cx="138.09" cy="138.58" r="121"/></g><g id="logo_blk"><path id="SVGID-2" data-name="SVGID" class="cls-1" d="M81.46,61.81v79.75a7.23,7.23,0,1,1-14.46,0V123.8a4.5,4.5,0,1,0-9,0v17.76a16.23,16.23,0,1,0,32.45,0V61.81a7.24,7.24,0,1,1,14.47,0V179.54a16.23,16.23,0,1,0,32.45,0V91.93a7.24,7.24,0,0,1,14.48,0v53.53a16.23,16.23,0,1,0,32.45,0V123.8a4.5,4.5,0,1,0-9,0h0v21.65a7.24,7.24,0,1,1-14.47,0V91.93a16.23,16.23,0,0,0-32.46,0v87.61a7.24,7.24,0,1,1-14.47,0V61.81a16.23,16.23,0,0,0-32.46,0" transform="translate(17.09 17.58)"/><g class="cls-3"><polygon class="cls-4" points="138.25 276.51 0 138.25 138.25 0 276.5 138.25 138.25 276.51"/></g></g></g></svg>