<svg xmlns="http://www.w3.org/2000/svg" xmlns:xlink="http://www.w3.org/1999/xlink" viewBox="0 0 826.22 276.51"><defs><style>.cls-1{fill:url(#linear-gradient);}.cls-2{clip-path:url(#clip-path);}.cls-3{fill:url(#linear-gradient-3);}.cls-4{fill:#1e2328;}</style><linearGradient id="linear-gradient" x1="98.08" y1="34.87" x2="15.13" y2="117.82" gradientUnits="userSpaceOnUse"><stop offset="0" stop-color="#f4865f"/><stop offset="0.15" stop-color="#f38060"/><stop offset="0.36" stop-color="#f26e61"/><stop offset="0.6" stop-color="#ef5164"/><stop offset="0.86" stop-color="#ea2967"/><stop offset="1" stop-color="#e81169"/></linearGradient><clipPath id="clip-path" transform="translate(75.09 63.16)"><path id="SVGID" class="cls-1" d="M23.46,16.23V96A7.23,7.23,0,0,1,9,96V78.22a4.5,4.5,0,1,0-9,0V96a16.23,16.23,0,1,0,32.45,0V16.23a7.24,7.24,0,1,1,14.47,0V134a16.23,16.23,0,1,0,32.45,0V46.35a7.24,7.24,0,0,1,14.48,0V99.88a16.23,16.23,0,1,0,32.45,0V78.22a4.5,4.5,0,1,0-9,0h0V99.88a7.24,7.24,0,1,1-14.47,0V46.35a16.23,16.23,0,0,0-32.46,0V134a7.24,7.24,0,1,1-14.47,0V16.23a16.23,16.23,0,0,0-32.46,0"/></clipPath><linearGradient id="linear-gradient-3" x1="207.38" y1="69.13" x2="69.12" y2="207.38" xlink:href="#linear-gradient"/></defs><g id="Layer_2" data-name="Layer 2"><g id="logo_blk"><path id="SVGID-2" data-name="SVGID" class="cls-1" d="M23.46,16.23V96A7.23,7.23,0,0,1,9,96V78.22a4.5,4.5,0,1,0-9,0V96a16.23,16.23,0,1,0,32.45,0V16.23a7.24,7.24,0,1,1,14.47,0V134a16.23,16.23,0,1,0,32.45,0V46.35a7.24,7.24,0,0,1,14.48,0V99.88a16.23,16.23,0,1,0,32.45,0V78.22a4.5,4.5,0,1,0-9,0h0V99.88a7.24,7.24,0,1,1-14.47,0V46.35a16.23,16.23,0,0,0-32.46,0V134a7.24,7.24,0,1,1-14.47,0V16.23a16.23,16.23,0,0,0-32.46,0" transform="translate(75.09 63.16)"/><g class="cls-2"><polygon class="cls-3" points="138.25 276.51 0 138.25 138.25 0 276.5 138.25 138.25 276.51"/></g><path class="cls-4" d="M217.64,87.57q0,8.46-6.15,13.27t-16.84,4.81a53.9,53.9,0,0,1-9.8-.84,30,30,0,0,1-7.75-2.45V93.27a55.18,55.18,0,0,0,8.37,2.89,37.68,37.68,0,0,0,9.8,1.3q6.42,0,9.62-2.5a8,8,0,0,0,3.21-6.68,8.34,8.34,0,0,0-1.42-5,13.55,13.55,0,0,0-4.59-3.74,70.28,70.28,0,0,0-8.24-3.7,43.12,43.12,0,0,1-8.29-4.18,17.63,17.63,0,0,1-5.7-6A17.24,17.24,0,0,1,177.81,57q0-7.84,5.7-12.3t15-4.45a40.27,40.27,0,0,1,9.58,1.07,54.6,54.6,0,0,1,8.42,2.76l-3,7.93a57.55,57.55,0,0,0-7.44-2.5,31.16,31.16,0,0,0-7.8-1c-3.5,0-6.18.77-8,2.32a7.52,7.52,0,0,0-2.76,6.06,8.72,8.72,0,0,0,1.34,4.94A12,12,0,0,0,193,65.51,61.62,61.62,0,0,0,200.8,69a59.32,59.32,0,0,1,9.13,4.5,16.83,16.83,0,0,1,5.74,5.7A16.24,16.24,0,0,1,217.64,87.57Z" transform="translate(75.09 63.16)"/><path class="cls-4" d="M252.49,104.76h-9.62V49.43H223.8V41.15h47.76v8.28H252.49Z" transform="translate(75.09 63.16)"/><path class="cls-4" d="M335.62,72.86a41.75,41.75,0,0,1-3.3,17.24,25.38,25.38,0,0,1-9.89,11.45q-6.6,4.11-16.39,4.1-10.08,0-16.66-4.1a24.76,24.76,0,0,1-9.81-11.49,43.28,43.28,0,0,1-3.2-17.28,42.67,42.67,0,0,1,3.2-17.15,24.52,24.52,0,0,1,9.81-11.41q6.58-4,16.74-4,9.81,0,16.35,4a25.11,25.11,0,0,1,9.85,11.41A41.71,41.71,0,0,1,335.62,72.86Zm-49.1,0q0,11.42,4.73,18T306,97.46q10.15,0,14.79-6.6t4.63-18q0-11.4-4.63-17.9t-14.71-6.51Q296,48.45,291.25,55T286.52,72.86Z" transform="translate(75.09 63.16)"/><path class="cls-4" d="M366.24,41.15q12.21,0,18,4.54t5.84,13.81a17.31,17.31,0,0,1-1.78,8.24,16.1,16.1,0,0,1-4.68,5.48,24.19,24.19,0,0,1-6,3.3l17.82,28.24H384.42L369.09,79h-11v25.75h-9.63V41.15Zm-.62,8.19h-7.57V71h8q7.4,0,10.79-2.8t3.38-8.33c0-3.8-1.19-6.51-3.56-8.11S370.61,49.34,365.62,49.34Z" transform="translate(75.09 63.16)"/><path class="cls-4" d="M422.37,70.9,438,41.15H448.3L427.09,80.08v24.68h-9.53V80.44l-21.2-39.29h10.42Z" transform="translate(75.09 63.16)"/><path class="cls-4" d="M501.31,104.76h-9.62V49.43H472.62V41.15h47.76v8.28H501.31Z" transform="translate(75.09 63.16)"/><path class="cls-4" d="M579.44,41.15V82.31a25.67,25.67,0,0,1-2.71,11.89,19.74,19.74,0,0,1-8.33,8.38q-5.62,3.08-14.17,3.07-12.12,0-18.4-6.46t-6.28-17.06v-41h9.62V81.69q0,15.77,15.51,15.77,8,0,11.62-4.28t3.61-11.58V41.15Z" transform="translate(75.09 63.16)"/><path class="cls-4" d="M648.05,104.76H636.38L604.21,53.35h-.35c.11,2.38.25,5.1.4,8.16s.25,6.19.31,9.39v33.86h-8.73V41.15h11.58l32.07,51.14h.27c-.06-1.25-.13-2.82-.22-4.72s-.17-3.94-.22-6.11-.12-4.2-.18-6.1V41.15h8.91Z" transform="translate(75.09 63.16)"/><path class="cls-4" d="M699.79,104.76H664V41.15h35.82v8.19H673.6V67.52h24.59v8.11H673.6V96.48h26.19Z" transform="translate(75.09 63.16)"/><path class="cls-4" d="M751.13,87.57q0,8.46-6.15,13.27t-16.84,4.81a54,54,0,0,1-9.8-.84,30,30,0,0,1-7.75-2.45V93.27A55.57,55.57,0,0,0,719,96.16a37.74,37.74,0,0,0,9.8,1.3q6.42,0,9.63-2.5a8,8,0,0,0,3.2-6.68,8.34,8.34,0,0,0-1.42-5,13.55,13.55,0,0,0-4.59-3.74,69.53,69.53,0,0,0-8.24-3.7,43.12,43.12,0,0,1-8.29-4.18,17.82,17.82,0,0,1-5.7-6A17.24,17.24,0,0,1,711.3,57q0-7.84,5.7-12.3t15-4.45a40.21,40.21,0,0,1,9.58,1.07A54.25,54.25,0,0,1,750,44.09l-3,7.93a57.55,57.55,0,0,0-7.44-2.5,31.09,31.09,0,0,0-7.79-1q-5.26,0-8,2.32a7.5,7.5,0,0,0-2.77,6.06,8.72,8.72,0,0,0,1.34,4.94,12,12,0,0,0,4.28,3.65A61.4,61.4,0,0,0,734.29,69a58.87,58.87,0,0,1,9.13,4.5,16.86,16.86,0,0,1,5.75,5.7A16.34,16.34,0,0,1,751.13,87.57Z" transform="translate(75.09 63.16)"/></g></g></svg>